<svg xmlns="http://www.w3.org/2000/svg" width="120" height="24"><path fill="#E60012" d="M16.018.685v22.631a11.912 11.912 0 004.512-2.867c4.657-4.708 4.622-12.307-.076-16.972A11.923 11.923 0 0016.018.685z"/><path fill="#FFF" d="M7.982.7v22.598c2.593.93 5.441.937 8.035.018V.685A11.998 11.998 0 007.982.7z"/><path fill="#00913A" d="M7.982.685v22.631a11.92 11.92 0 01-4.512-2.867c-4.656-4.709-4.622-12.308.077-16.972A11.912 11.912 0 017.982.685z"/><path fill="#0B318F" d="M25.422 6.332c-.462.86-.821 1.783-1.063 2.753h4.772l-3.709-2.753zM33.084.359a11.982 11.982 0 00-5.577 3.163l5.577 4.137v-7.3zM38.916 23.643a11.994 11.994 0 005.577-3.165l-5.577-4.137v7.302zM46.579 17.668c.461-.858.821-1.783 1.062-2.752h-4.772l3.71 2.752zM47.641 9.084a11.899 11.899 0 00-1.062-2.753l-3.71 2.753h4.772zM29.131 14.916h-4.772c.242.969.601 1.894 1.063 2.752l3.709-2.752zM27.507 20.478a11.994 11.994 0 005.577 3.165v-7.302l-5.577 4.137zM44.493 3.522A11.987 11.987 0 0038.916.359v7.3l5.577-4.137z"/><path fill="#E60012" d="M32.069 9.084l-5.708-4.233c-.231.312-.448.636-.65.97l4.399 3.264h1.959zM39.932 14.916l5.706 4.232c.232-.313.45-.635.65-.969l-4.399-3.264h-1.957zM33.084 14.916h-1.016l-5.707 4.232c.232.313.479.613.74.903l5.982-4.437v-.698zM38.916 9.084h1.016l5.707-4.233a12.077 12.077 0 00-.74-.903l-5.982 4.437v.699z"/><path fill="#FFF" d="M47.872 13.751H37.75v10.12c.395-.059.784-.133 1.166-.229V16.34l5.577 4.137c.414-.414.795-.859 1.146-1.329l-5.706-4.232h1.958l4.399 3.264c.1-.168.198-.339.291-.512l-3.71-2.752h4.772c.094-.382.171-.77.229-1.165zM47.641 9.084h-4.772l3.71-2.753a12.027 12.027 0 00-.941-1.48l-5.707 4.233h-1.016v-.7l5.982-4.437a12.51 12.51 0 00-.405-.426l-5.577 4.137v-7.3a11.838 11.838 0 00-1.166-.23V10.25h10.122a11.553 11.553 0 00-.23-1.166z"/><g fill="#FFF"><path d="M24.128 13.751c.058.395.134.783.23 1.165h4.772l-3.709 2.752c.277.519.592 1.014.94 1.48l5.707-4.232h1.016v.699l-5.982 4.437c.132.146.267.287.405.426l5.577-4.137v7.302c.381.096.771.17 1.166.229v-10.12H24.128zM33.084.359v7.3l-5.577-4.137c-.414.414-.795.859-1.146 1.329l5.708 4.233h-1.958L25.712 5.82a11.18 11.18 0 00-.29.511l3.709 2.753h-4.772c-.096.382-.172.771-.23 1.166h10.122V.128c-.396.059-.785.135-1.167.231z"/></g><path fill="#E60012" d="M47.872 10.25H37.75V.128A12.156 12.156 0 0036 0c-.595 0-1.179.045-1.75.128V10.25H24.128A12.177 12.177 0 0024 12c0 .594.045 1.178.128 1.75H34.25v10.12c.571.084 1.155.13 1.75.13.594 0 1.178-.046 1.75-.13V13.75h10.122c.083-.571.128-1.156.128-1.75 0-.594-.045-1.178-.128-1.75zM64.019.685v22.632a11.927 11.927 0 004.512-2.867c4.656-4.708 4.622-12.308-.076-16.974A11.941 11.941 0 0064.019.685z"/><path fill="#FFF" d="M55.983.7v22.599c2.593.93 5.439.936 8.035.018V.685A11.998 11.998 0 0055.983.7z"/><path fill="#0B318F" d="M55.983.684v22.632a11.94 11.94 0 01-4.513-2.867c-4.658-4.709-4.623-12.309.076-16.975a11.947 11.947 0 014.437-2.79z"/><g><path fill="#E60012" d="M84 0c-4.44 0-8.314 2.415-10.391 6h20.782C92.316 2.415 88.441 0 84 0z"/><path fill="#FFE200" d="M96 12c0-2.187-.587-4.234-1.608-6H73.609C72.588 7.766 72 9.813 72 12s.588 4.234 1.609 6h20.782A11.937 11.937 0 0096 12z"/><path fill="#E60012" d="M94.392 18H73.609c2.076 3.586 5.95 6 10.391 6s8.316-2.414 10.392-6z"/></g><g><path fill="#E60012" d="M120 12a11.94 11.94 0 00-.686-4H96.686a11.985 11.985 0 000 8h22.629c.443-1.252.685-2.598.685-4z"/><path fill="#231815" d="M108 0c-5.225 0-9.666 3.339-11.314 8h22.629c-1.647-4.661-6.09-8-11.315-8z"/><path fill="#FFE200" d="M119.314 16H96.686c1.648 4.66 6.09 8 11.314 8s9.668-3.34 11.314-8z"/></g></svg>